# xmcd
#
# Track frame offsets:
#	150
#	24722
#	48778
#	80528
#	111126
#	140018
#	159685
#	182898
#	207155
#	229760
#
# Disc length: 3319 seconds
# Revision: 0
# Processed by: cddbd v1.5.2PL0 Copyright (c) Steve Scherf et al.
# Submitted via: dBpowerAMP V12.0
#
DISCID=850cf50a
DTITLE=Joe Louis Walker - New Direction [Blues Bureau International] (s)
DYEAR=2004
DGENRE=Blues
TTITLE0=Do You Love Me
TTITLE1=Custom Cars, Gibson Guitars
TTITLE2=Messed My Mind Up
TTITLE3=New Direction
TTITLE4=You Don't Love Me Girl
TTITLE5=Tempting Me
TTITLE6=Soldier For Jesus
TTITLE7=Mr.'s G's Boogie
TTITLE8=Ain't That Cold
TTITLE9=Lena
EXTD=
EXTT0=
EXTT1=
EXTT2=
EXTT3=
EXTT4=
EXTT5=
EXTT6=
EXTT7=
EXTT8=
EXTT9=
PLAYORDER=
